# Blender v2.74 (sub 0) OBJ File: ''
# www.blender.org
v 0.000000 0.500000 0.500000
v 0.129400 0.500000 0.483000
v 0.250000 0.500000 0.433000
v 0.353600 0.500000 0.353600
v 0.433000 0.500000 0.250000
v 0.483000 0.500000 0.129400
v 0.500000 0.500000 0.000000
v 0.483000 0.500000 -0.129400
v 0.433000 0.500000 -0.250000
v 0.353600 0.500000 -0.353600
v 0.250000 0.500000 -0.433000
v 0.129400 0.500000 -0.483000
v 0.000000 0.500000 -0.500000
v -0.129400 0.500000 -0.483000
v -0.250000 0.500000 -0.433000
v -0.353600 0.500000 -0.353600
v -0.433000 0.500000 -0.250000
v -0.483000 0.500000 -0.129400
v -0.500000 0.500000 0.000000
v -0.483000 0.500000 0.129400
v -0.433000 0.500000 0.250000
v -0.353600 0.500000 0.353600
v -0.250000 0.500000 0.433000
v -0.129400 0.500000 0.483000
v 0.000000 -0.500000 0.500000
v 0.129400 -0.500000 0.483000
v 0.250000 -0.500000 0.433000
v 0.353600 -0.500000 0.353600
v 0.433000 -0.500000 0.250000
v 0.483000 -0.500000 0.129400
v 0.500000 -0.500000 0.000000
v 0.483000 -0.500000 -0.129400
v 0.433000 -0.500000 -0.250000
v 0.353600 -0.500000 -0.353600
v 0.250000 -0.500000 -0.433000
v 0.129400 -0.500000 -0.483000
v 0.000000 -0.500000 -0.500000
v -0.129400 -0.500000 -0.483000
v -0.250000 -0.500000 -0.433000
v -0.353600 -0.500000 -0.353600
v -0.433000 -0.500000 -0.250000
v -0.483000 -0.500000 -0.129400
v -0.500000 -0.500000 0.000000
v -0.483000 -0.500000 0.129400
v -0.433000 -0.500000 0.250000
v -0.353600 -0.500000 0.353600
v -0.250000 -0.500000 0.433000
v -0.129400 -0.500000 0.483000
v 0.000000 0.500000 0.000000
v 0.000000 -0.500000 0.000000
vn 0.000000 0.678900 0.734200
vn 0.000000 -0.678900 0.734200
vn 0.190100 -0.678800 0.709300
vn 0.190100 0.678800 0.709300
vn 0.367000 -0.678900 0.635900
vn 0.367000 0.678900 0.635900
vn 0.519300 -0.678700 0.519300
vn 0.519300 0.678700 0.519300
vn 0.635900 -0.678900 0.367000
vn 0.635900 0.678900 0.367000
vn 0.709300 -0.678800 0.190100
vn 0.709300 0.678800 0.190100
vn 0.734200 -0.678900 0.000000
vn 0.734200 0.678900 0.000000
vn 0.709300 -0.678800 -0.190100
vn 0.709300 0.678800 -0.190100
vn 0.635900 -0.678900 -0.367000
vn 0.635900 0.678900 -0.367000
vn 0.519300 -0.678700 -0.519300
vn 0.519300 0.678700 -0.519300
vn 0.367000 -0.678900 -0.635900
vn 0.367000 0.678900 -0.635900
vn 0.190100 -0.678800 -0.709300
vn 0.190100 0.678800 -0.709300
vn 0.000000 -0.678900 -0.734200
vn 0.000000 0.678900 -0.734200
vn -0.190100 -0.678800 -0.709300
vn -0.190100 0.678800 -0.709300
vn -0.367000 -0.678900 -0.635900
vn -0.367000 0.678900 -0.635900
vn -0.519300 -0.678700 -0.519300
vn -0.519300 0.678700 -0.519300
vn -0.635900 -0.678900 -0.367000
vn -0.635900 0.678900 -0.367000
vn -0.709300 -0.678800 -0.190100
vn -0.709300 0.678800 -0.190100
vn -0.734200 -0.678900 0.000000
vn -0.734200 0.678900 0.000000
vn -0.709300 -0.678800 0.190100
vn -0.709300 0.678800 0.190100
vn -0.635900 -0.678900 0.367000
vn -0.635900 0.678900 0.367000
vn -0.519300 -0.678700 0.519300
vn -0.519300 0.678700 0.519300
vn -0.367000 -0.678900 0.635900
vn -0.367000 0.678900 0.635900
vn -0.190100 -0.678800 0.709300
vn -0.190100 0.678800 0.709300
vn 0.000000 1.000000 0.000000
vn 0.000000 -1.000000 0.000000
f 1//1 25//2 26//3
f 1//1 26//3 2//4
f 2//4 26//3 27//5
f 2//4 27//5 3//6
f 3//6 27//5 28//7
f 3//6 28//7 4//8
f 4//8 28//7 29//9
f 4//8 29//9 5//10
f 5//10 29//9 30//11
f 5//10 30//11 6//12
f 6//12 30//11 31//13
f 6//12 31//13 7//14
f 7//14 31//13 32//15
f 7//14 32//15 8//16
f 8//16 32//15 33//17
f 8//16 33//17 9//18
f 9//18 33//17 34//19
f 9//18 34//19 10//20
f 10//20 34//19 35//21
f 10//20 35//21 11//22
f 11//22 35//21 36//23
f 11//22 36//23 12//24
f 12//24 36//23 37//25
f 12//24 37//25 13//26
f 13//26 37//25 38//27
f 13//26 38//27 14//28
f 14//28 38//27 39//29
f 14//28 39//29 15//30
f 15//30 39//29 40//31
f 15//30 40//31 16//32
f 16//32 40//31 41//33
f 16//32 41//33 17//34
f 17//34 41//33 42//35
f 17//34 42//35 18//36
f 18//36 42//35 43//37
f 18//36 43//37 19//38
f 19//38 43//37 44//39
f 19//38 44//39 20//40
f 20//40 44//39 45//41
f 20//40 45//41 21//42
f 21//42 45//41 46//43
f 21//42 46//43 22//44
f 22//44 46//43 47//45
f 22//44 47//45 23//46
f 23//46 47//45 48//47
f 23//46 48//47 24//48
f 24//48 48//47 25//2
f 24//48 25//2 1//1
f 1//1 2//4 49//49
f 2//4 3//6 49//49
f 3//6 4//8 49//49
f 4//8 5//10 49//49
f 5//10 6//12 49//49
f 6//12 7//14 49//49
f 7//14 8//16 49//49
f 8//16 9//18 49//49
f 9//18 10//20 49//49
f 10//20 11//22 49//49
f 11//22 12//24 49//49
f 12//24 13//26 49//49
f 13//26 14//28 49//49
f 14//28 15//30 49//49
f 15//30 16//32 49//49
f 16//32 17//34 49//49
f 17//34 18//36 49//49
f 18//36 19//38 49//49
f 19//38 20//40 49//49
f 20//40 21//42 49//49
f 21//42 22//44 49//49
f 22//44 23//46 49//49
f 23//46 24//48 49//49
f 24//48 1//1 49//49
f 26//3 25//2 50//50
f 27//5 26//3 50//50
f 28//7 27//5 50//50
f 29//9 28//7 50//50
f 30//11 29//9 50//50
f 31//13 30//11 50//50
f 32//15 31//13 50//50
f 33//17 32//15 50//50
f 34//19 33//17 50//50
f 35//21 34//19 50//50
f 36//23 35//21 50//50
f 37//25 36//23 50//50
f 38//27 37//25 50//50
f 39//29 38//27 50//50
f 40//31 39//29 50//50
f 41//33 40//31 50//50
f 42//35 41//33 50//50
f 43//37 42//35 50//50
f 44//39 43//37 50//50
f 45//41 44//39 50//50
f 46//43 45//41 50//50
f 47//45 46//43 50//50
f 48//47 47//45 50//50
f 25//2 48//47 50//50
